<?xml version="1.0" encoding="utf-8"?>
<!-- Generator: Adobe Illustrator 22.1.0, SVG Export Plug-In . SVG Version: 6.00 Build 0)  -->
<svg version="1.1" id="Layer_1" xmlns="http://www.w3.org/2000/svg" xmlns:xlink="http://www.w3.org/1999/xlink" x="0px" y="0px"
	 viewBox="0 0 96 96" style="enable-background:new 0 0 96 96;" xml:space="preserve">
<style type="text/css">
	.st0{fill:none;stroke:#000000;stroke-width:2;stroke-linecap:round;stroke-linejoin:round;stroke-miterlimit:10;}
	.st1{fill:none;stroke:#000000;stroke-width:2.8224;stroke-linecap:round;stroke-linejoin:round;stroke-miterlimit:10;}
	.st2{fill:#823499;}
	.st3{fill:none;stroke:#000000;stroke-width:2.8992;stroke-linecap:round;stroke-linejoin:round;stroke-miterlimit:10;}
	.st4{fill:none;stroke:#000000;stroke-width:2.7436;stroke-linecap:round;stroke-linejoin:round;stroke-miterlimit:10;}
</style>
<g>
	<path class="st3" d="M47.2,67.5c8-6.5,16.7-12.2,18.2-23.9c0.9-6.8-2.3-14.7-8.8-18.9c-4.1-2.6-14.9-1.7-18.9,1.4
		c-9.2,7.2-10.6,18.1-2.9,29c0.6,0.8,1.3,1.6,2.2,2.2c10,6.7,12,16.5,10.9,27.6"/>
	<path class="st3" d="M72,14.3c1.2-2.1,0.7-8.8-0.9-10.9c-11.9,2.8-28.2,5.9-39.8,9.8"/>
	<path class="st3" d="M48.7,29.1c-8.2,0.3-10.8,2.8-13,12.3"/>
	<path class="st3" d="M31.3,13.2c-13.8,2.6-13.8,2.6-13.8,17.4c0,18.6,0,37.2,0,55.8c0,2,0,3.9,0,6.2c20.5,0,40.3,0,60.9,0
		c0-10.3,0-20.2,0-30.1c0-13.8-0.2-27.5,0.1-41.3c0.1-5-1.6-6.8-6.6-6.6c-8.9,0.3-42.4-0.1-46.4-0.1"/>
</g>
</svg>
