<svg xmlns="http://www.w3.org/2000/svg" viewBox="0 0 96 96"><title>icones_Artboard 7</title><path d="M83.28,93H12.75a1.38,1.38,0,0,1-1-.43,1.39,1.39,0,0,1-.4-1c.21-5.86.12-11.77,0-17.49-.12-9-.25-18.21.74-27.31a1.41,1.41,0,0,1,2.8.3c-1,8.93-.85,17.69-.72,27,.07,5.28.15,10.73,0,16.18H81.83c-.15-5.45-.08-10.9,0-16.18.12-9.28.25-18-.72-27a1.41,1.41,0,1,1,2.8-.3c1,9.1.86,18.36.73,27.31-.08,5.72-.16,11.63,0,17.49a1.39,1.39,0,0,1-.4,1A1.38,1.38,0,0,1,83.28,93Z"/><path d="M38.16,73a1.46,1.46,0,0,1-1-.38,1.43,1.43,0,0,1-.44-1q0-4.61,0-9.2c0-7.64,0-15.54.07-23.3a25.88,25.88,0,0,0-.21-3.2c-.28-2.85-.61-6.08,1.27-8.75,2.26-3.21,5.29-2.14,7.5-1.36a6.81,6.81,0,0,0,3.09.63c5.48-1,11-.86,16.38-.7,5.06.16,10.29.32,15.34-.57,1.49-.26,4.25-.45,6,1.24a4.9,4.9,0,0,1,1.18,4.49,18.23,18.23,0,0,0,.16,4.85c.45,3.83,1,8.16-3.49,11.49-.92.69-2.06.31-3,0-.22-.07-.54-.18-.65-.2-1.87.05-3.8,0-5.67-.13-4-.19-7.8-.37-11.55.63a1.41,1.41,0,1,1-.72-2.72c4.17-1.11,8.35-.91,12.4-.72,1.83.08,3.71.17,5.53.13a4.66,4.66,0,0,1,1.56.34c.18.06.46.16.65.21,2.86-2.33,2.52-5.29,2.11-8.7a20.72,20.72,0,0,1-.14-5.62,2.29,2.29,0,0,0-.38-2c-.58-.57-1.93-.76-3.51-.48-5.33.94-10.71.77-15.92.62-1.81-.06-3.64-.12-5.47-.12a.61.61,0,0,1,0,.14v43a1.37,1.37,0,0,1-.43,1,1.33,1.33,0,0,1-1,.4c-3-.06-5.18-1.43-7.08-2.63a17.58,17.58,0,0,0-3-1.68c-.5.31-1,.66-1.54,1-2.07,1.44-4.41,3.07-7.92,3.3Zm9.4-7.29a1.42,1.42,0,0,1,.42.06A17.83,17.83,0,0,1,52.27,68a13.2,13.2,0,0,0,4.19,2V28.58a.37.37,0,0,1,0-.11,47.06,47.06,0,0,0-7.5.74,8.88,8.88,0,0,1-4.55-.75c-2.39-.84-3.31-1-4.26.33-1.27,1.82-1,4.26-.76,6.84a34.66,34.66,0,0,1,.22,3.53c-.11,7.74-.09,15.63-.07,23.26q0,3.78,0,7.57a14.65,14.65,0,0,0,5-2.58,27.15,27.15,0,0,1,2.33-1.5A1.45,1.45,0,0,1,47.56,65.74Z"/><path d="M41.68,27.17a1.29,1.29,0,0,1-.47-.08,1.4,1.4,0,0,1-.86-1.79c.08-.23.17-.47.26-.71.62-1.62.7-2.14.1-2.68-2-1.77-3.81-3.72-5.57-5.6-3.26-3.47-6.33-6.74-10.33-9.14-3.4-2-6.34-1.6-9.54,1.41-2.93,2.77-5,5.23-2.89,9.68a22.14,22.14,0,0,0,1.55,2.59,16.34,16.34,0,0,1,2.35,4.53,1.41,1.41,0,0,1-2.71.78,14.24,14.24,0,0,0-2-3.76,26,26,0,0,1-1.74-2.93c-2.92-6.14.28-9.9,3.5-12.94,4.09-3.86,8.44-4.46,12.92-1.77S34,10.93,37.19,14.38c1.73,1.84,3.51,3.74,5.4,5.44,2.13,1.91,1.24,4.24.65,5.78-.08.21-.16.42-.23.63A1.42,1.42,0,0,1,41.68,27.17Z"/><path d="M54.35,27.17a1.39,1.39,0,0,1-1.25-.76c-1.48-2.86-1.35-5.56.34-7.21,4.11-4,8.46-7.92,12.68-11.69L68.91,5c2.61-2.34,5.85-2.64,9.91-.92,4.21,1.79,6.82,4.37,7.76,7.69,1.17,4.1-.29,9.07-4.33,14.8A1.41,1.41,0,1,1,80,25c3.53-5,4.85-9.16,3.93-12.4-.7-2.45-2.78-4.43-6.16-5.86-3-1.29-5.17-1.16-6.93.42L68,9.61c-4.2,3.74-8.53,7.62-12.59,11.6-.9.88-.49,2.59.19,3.91A1.41,1.41,0,0,1,55,27,1.51,1.51,0,0,1,54.35,27.17Z"/><path d="M48,63.08a1.41,1.41,0,0,1-1.41-1.41V28.58a1.41,1.41,0,0,1,2.82,0V61.67A1.41,1.41,0,0,1,48,63.08Z"/><path d="M14.36,47.82a5.38,5.38,0,0,1-4.61-2.35c-1.92-2.62-1.61-5.7-1.3-8.67a19.66,19.66,0,0,0,.12-4.5c-.33-2.43.08-4.29,1.23-5.55S12.67,25,15,25.09c5.52.28,11.11.63,16.53,1l6.72.41A1.41,1.41,0,0,1,39.56,28a1.39,1.39,0,0,1-1.49,1.32l-6.73-.41c-5.4-.34-11-.69-16.49-1a3.69,3.69,0,0,0-3,.76c-.69.75-.66,2.18-.51,3.25a21.87,21.87,0,0,1-.11,5.18c-.26,2.55-.51,5,.77,6.71s2.68,1.36,5.41.67A11.66,11.66,0,0,1,23,44a15.52,15.52,0,0,0,4.24.18,14.81,14.81,0,0,1,6.5.7,1.41,1.41,0,0,1-1.06,2.61A12.48,12.48,0,0,0,27.38,47a17.79,17.79,0,0,1-5-.26,9.37,9.37,0,0,0-4.24.46A15.4,15.4,0,0,1,14.36,47.82Z"/><path d="M54.35,20.84a1.37,1.37,0,0,1-1.12-.56c-2.5-3.3-4.06-4.71-5.22-4.71S45.29,17,42.8,20.28a1.41,1.41,0,0,1-2.25-1.7C43.27,15,45.47,12.76,48,12.76s4.74,2.23,7.46,5.82a1.4,1.4,0,0,1-.27,2A1.37,1.37,0,0,1,54.35,20.84Z"/></svg>