<?xml version="1.0" encoding="utf-8"?>
<!-- Generator: Adobe Illustrator 22.1.0, SVG Export Plug-In . SVG Version: 6.00 Build 0)  -->
<svg version="1.1" id="Layer_1" xmlns="http://www.w3.org/2000/svg" xmlns:xlink="http://www.w3.org/1999/xlink" x="0px" y="0px"
	 viewBox="0 0 96 96" style="enable-background:new 0 0 96 96;" xml:space="preserve">
<style type="text/css">
	.st0{fill:none;stroke:#000000;stroke-width:2;stroke-linecap:round;stroke-linejoin:round;stroke-miterlimit:10;}
	.st1{fill:none;stroke:#000000;stroke-width:2.8224;stroke-linecap:round;stroke-linejoin:round;stroke-miterlimit:10;}
	.st2{fill:none;stroke:#000000;stroke-width:2.8992;stroke-linecap:round;stroke-linejoin:round;stroke-miterlimit:10;}
	.st3{fill:none;stroke:#000000;stroke-width:2.7436;stroke-linecap:round;stroke-linejoin:round;stroke-miterlimit:10;}
</style>
<g>
	<path class="st3" d="M74.5,11c-15.6,0-39.1,0-55,0c0,19.9,0,39.1,0,58.6c19.1,0,37.8,0,57.3,0c0-18.6-0.1-36.9,0.1-55.2
		c0-4.1-2.5-3.4-4.9-3.4"/>
	<path class="st3" d="M31.5,37.7c0.5,7.4,4.1,12.9,11,15.7c7.8,3.2,17-1.2,20.5-9.6c0.8-1.9,2-3.9,1.4-6.1"/>
	<path class="st3" d="M64.5,64.5c-11-7.4-21.9-7.4-32.9,0"/>
	<path class="st3" d="M56.9,17.8c3.3,5.5,4.9,12,11.5,15.3c3.6,1.8,1.7,5.8-3.3,7.3"/>
	<path class="st3" d="M39.1,17.8c-3.3,5.5-4.9,12-11.5,15.3c-3.6,1.8-1.7,5.8,3.3,7.3"/>
	<path class="st3" d="M37.7,22.6c6.9,1.3,13.7,1.5,20.6,0"/>
	<path class="st3" d="M15.8,5.5C11.8,6,12.3,9,12.3,11.6c0,24.2,0.1,48.5-0.1,72.7c0,4.7,1.5,6.3,6.3,6.3c19.7-0.2,39.3-0.2,59,0
		c4.7,0,6.3-1.6,6.3-6.3c-0.2-24.2-0.2-48.5,0-72.7c0-5.4-2.3-6.3-7-6.2C56.7,5.6,36.6,5.5,16.4,5.5"/>
</g>
</svg>
