<?xml version="1.0" encoding="utf-8"?>
<!-- Generator: Adobe Illustrator 22.1.0, SVG Export Plug-In . SVG Version: 6.00 Build 0)  -->
<svg version="1.1" id="Layer_1" xmlns="http://www.w3.org/2000/svg" xmlns:xlink="http://www.w3.org/1999/xlink" x="0px" y="0px"
	 viewBox="0 0 96 96" style="enable-background:new 0 0 96 96;" xml:space="preserve">
<style type="text/css">
	.st0{fill:none;stroke:#000000;stroke-width:2;stroke-linecap:round;stroke-linejoin:round;stroke-miterlimit:10;}
	.st1{fill:none;stroke:#000000;stroke-width:2.8224;stroke-linecap:round;stroke-linejoin:round;stroke-miterlimit:10;}
	.st2{fill:#823499;}
	.st3{fill:none;stroke:#000000;stroke-width:2.8992;stroke-linecap:round;stroke-linejoin:round;stroke-miterlimit:10;}
	.st4{fill:none;stroke:#000000;stroke-width:2.7436;stroke-linecap:round;stroke-linejoin:round;stroke-miterlimit:10;}
</style>
<g>
	<g>
		<g>
			<path class="st2" d="M26.6,61.7c-0.1,0-0.3,0-0.4-0.1c-2.1-0.7-3.4-2.2-4.6-3.6c-1.1-1.3-2.1-2.4-3.5-2.9l-9,4
				c-0.5,0.2-1,0.2-1.4-0.1c-0.4-0.3-0.6-0.8-0.6-1.3C7.7,50.4,8.9,44.5,11,39c0.3-0.7,1.1-1.1,1.8-0.8c0.7,0.3,1.1,1.1,0.8,1.8
				c-1.8,4.6-2.9,9.6-3.4,15.5l7.2-3.2c0.3-0.1,0.6-0.2,0.9-0.1c2.7,0.5,4.2,2.3,5.5,3.9c1.1,1.2,2,2.3,3.3,2.7
				c0.8,0.2,1.2,1.1,0.9,1.8C27.8,61.3,27.2,61.7,26.6,61.7z"/>
		</g>
		<g>
			<path class="st2" d="M72.4,61.7c-0.6,0-1.2-0.4-1.4-1c-0.2-0.8,0.2-1.6,0.9-1.8c1.3-0.4,2.2-1.5,3.3-2.7c1.4-1.6,2.9-3.4,5.5-3.9
				c0.3-0.1,0.6,0,0.9,0.1l7.2,3.2c-0.6-5.9-1.7-10.9-3.4-15.5c-0.3-0.7,0.1-1.6,0.8-1.8c0.7-0.3,1.6,0.1,1.8,0.8
				c2.1,5.5,3.3,11.5,3.8,18.8c0,0.5-0.2,1-0.6,1.3s-0.9,0.3-1.4,0.1l-9-4c-1.4,0.4-2.4,1.6-3.5,2.9c-1.2,1.4-2.5,2.9-4.6,3.6
				C72.7,61.6,72.5,61.7,72.4,61.7z"/>
		</g>
		<g>
			<path class="st2" d="M18,30.9c-0.6,0-1.2-0.4-1.4-1.1c-0.5-2-1.2-3.6-1.8-5.3c-1.1-2.9-2.2-5.7-2.3-9.4c-0.1-5.7-2.3-8-8.3-8.6
				C3.5,6.5,2.9,5.8,3,5c0.1-0.8,0.8-1.4,1.6-1.3c5.3,0.6,10.7,2.4,10.8,11.4c0.1,3.2,1,5.6,2.1,8.4c0.7,1.7,1.4,3.5,1.9,5.6
				c0.2,0.8-0.3,1.5-1,1.7C18.3,30.9,18.1,30.9,18,30.9z"/>
		</g>
		<g>
			<path class="st2" d="M17.9,91.6c-0.1,0-0.2,0-0.3,0c-0.6-0.1-1-0.6-1.1-1.2c-0.4-2.4-1-4.3-1.6-6.2c-0.5-1.7-1-3.3-1.3-5.1
				c-0.1-0.5-0.2-1.1-0.2-1.6c-0.9-6-1.6-11.1-9-11.5c-0.8,0-1.4-0.7-1.4-1.5c0-0.8,0.7-1.4,1.5-1.4c9.7,0.5,10.8,8,11.7,14
				c0.1,0.5,0.2,1.1,0.2,1.6c0.2,1.6,0.7,3.1,1.2,4.7c0.3,1.1,0.7,2.2,1,3.5l12.6-16.7c0.3-0.4,0.9-0.7,1.4-0.5
				c10.1,2.2,20.9,2.2,33.9,0.1c0.5-0.1,1.1,0.1,1.4,0.6l12.5,16.6c2.2-4,2.9-8.5,3-11.7c0.4-8.7,5.5-10.9,10.9-12
				c0.8-0.2,1.5,0.3,1.7,1.1c0.2,0.8-0.3,1.5-1.1,1.7c-5.3,1.1-8.3,2.9-8.6,9.4c-0.2,4.1-1.1,10-4.6,14.9c-0.3,0.4-0.7,0.6-1.1,0.6
				c-0.4,0-0.9-0.2-1.2-0.6L66.2,72.7c-12.7,1.9-23.3,1.9-33.2-0.1L19,91C18.7,91.4,18.3,91.6,17.9,91.6z"/>
		</g>
		<g>
			<path class="st2" d="M43.8,14c-11,0-22.3-0.8-32-4.7C11,9,10.7,8.2,11,7.5c0.3-0.7,1.1-1.1,1.9-0.8c13.2,5.2,29.7,4.6,44.3,4.2
				c1.8-0.1,3.5-0.1,5.2-0.2c5-0.1,11.2-1.4,17.2-2.6c3-0.6,5.8-1.2,8.3-1.5c0.8-0.1,1.5,0.4,1.6,1.2c0.1,0.8-0.4,1.5-1.2,1.6
				c-2.5,0.4-5.3,0.9-8.2,1.5c-6.1,1.2-12.5,2.5-17.7,2.6c-1.7,0-3.4,0.1-5.2,0.2C52.9,13.8,48.4,14,43.8,14z"/>
		</g>
		<g>
			<path class="st2" d="M49.5,66.7c-0.4,0-0.9-0.2-1.2-0.6c-4.1-5.8-7.5-15.5-8.8-22c-0.2-0.8,0.3-1.5,1.1-1.7
				c0.8-0.2,1.5,0.3,1.7,1.1c1.3,6.3,4.5,15.5,8.3,20.9c0.5,0.6,0.3,1.5-0.3,2C50.1,66.6,49.8,66.7,49.5,66.7z"/>
		</g>
		<g>
			<path class="st2" d="M40.3,34.1c-0.3,0-0.5-0.1-0.7-0.2c-0.3-0.2-0.6-0.5-0.7-0.9c-1.1-4.4-0.9-8.6-0.8-12.7
				c0.1-2.2,0.1-4.4,0-6.5c0-0.8,0.6-1.5,1.3-1.5c0.8,0,1.5,0.6,1.5,1.3c0.1,2.2,0.1,4.5,0,6.7c-0.1,3.4-0.2,6.9,0.4,10.4
				c1-0.5,1.9-1.3,2.8-2c1.5-1.2,3-2.5,5.1-2.8c0.1,0,0.2,0,0.4,0c2.2,0.2,3.7,1.5,5,2.7c1.1,1,2.1,1.9,3.5,2.2V13.7
				c0-0.8,0.6-1.4,1.4-1.4s1.4,0.6,1.4,1.4v18.6c0,0.8-0.6,1.4-1.4,1.4c-3.3,0.2-5.3-1.6-6.9-3c-1.1-1-2-1.8-3.2-2
				c-1.3,0.3-2.3,1.1-3.5,2.2c-1.4,1.2-3,2.6-5.4,3.2C40.5,34.1,40.4,34.1,40.3,34.1z"/>
		</g>
		<g>
			<path class="st2" d="M49.4,44C33.5,44,19.6,42.3,6,36.5c-0.1,0-0.5,0-0.7,0c-0.3,0-0.6,0.1-0.8,0.1C3.6,36.6,3,36,3,35.2
				s0.6-1.4,1.4-1.4c0.2,0,0.4,0,0.6,0c0.6-0.1,1.4-0.1,2.1,0.2c16.3,6.9,33.3,7.8,53.8,6.9c9-0.4,17.8-2.8,26.3-5.1
				c2.3-0.6,4.7-1.3,7-1.9c0.8-0.2,1.5,0.3,1.7,1c0.2,0.8-0.3,1.5-1,1.7c-2.3,0.6-4.6,1.2-7,1.9c-8.7,2.4-17.7,4.9-27,5.3
				C57,43.9,53.1,44,49.4,44z"/>
		</g>
		<g>
			<path class="st2" d="M49.5,65.9c-0.1,0-0.2,0-0.3,0c-0.8-0.2-1.2-1-1-1.7c0.9-3.6,2.6-6.8,4.3-9.9c1.9-3.6,3.7-6.9,4.3-10.8
				c0.1-0.8,0.9-1.3,1.6-1.2c0.8,0.1,1.3,0.9,1.2,1.6c-0.7,4.3-2.7,8-4.6,11.6c-1.6,3.1-3.2,6-4,9.2C50.7,65.5,50.1,65.9,49.5,65.9z
				"/>
		</g>
		<g>
			<path class="st2" d="M27.3,63.1c-0.1,0-0.2,0-0.3,0c-0.8-0.2-1.3-0.9-1.1-1.7L30.2,42c0.2-0.8,0.9-1.3,1.7-1.1
				c0.8,0.2,1.3,0.9,1.1,1.7L28.7,62C28.6,62.6,28,63.1,27.3,63.1z"/>
		</g>
		<g>
			<path class="st2" d="M71.7,63.1c-0.7,0-1.2-0.5-1.4-1.1L66,42.7c-0.2-0.8,0.3-1.5,1.1-1.7c0.8-0.2,1.5,0.3,1.7,1.1l4.3,19.3
				c0.2,0.8-0.3,1.5-1.1,1.7C71.9,63.1,71.8,63.1,71.7,63.1z"/>
		</g>
		<g>
			<path class="st2" d="M57.9,93.1c-2.6,0-4.2-1.7-5.6-3c-0.9-0.9-1.8-1.8-2.8-2.1c-1,0.3-1.8,1.2-2.8,2.1c-1.6,1.6-3.5,3.6-6.8,2.9
				c-0.6-0.1-1.1-0.6-1.2-1.2c-0.1-0.9-0.2-4.2-0.3-9.5c-0.1-4.1-0.2-8.8-0.3-9.7c-0.1-0.8,0.5-1.5,1.3-1.6c0.8-0.1,1.5,0.5,1.6,1.3
				c0.1,1,0.2,4.6,0.3,9.9c0.1,3,0.2,6.3,0.2,8.1c1.1-0.2,2-1,3.2-2.2c1.2-1.2,2.5-2.6,4.5-3c0.2,0,0.4,0,0.6,0c2,0.4,3.4,1.8,4.5,3
				c1.3,1.3,2.1,2.1,3.3,2.2c0.6-3.3,0.5-6.6,0.4-10.1c-0.1-2.1-0.1-4.3,0-6.5c0-0.8,0.7-1.4,1.5-1.4c0.8,0,1.4,0.7,1.4,1.5
				c-0.1,2.1,0,4.2,0,6.2C61.1,84,61.2,88,60.2,92c-0.1,0.5-0.6,1-1.1,1.1C58.7,93.1,58.3,93.1,57.9,93.1z"/>
		</g>
		<g>
			<path class="st2" d="M30.9,73.1c-0.1,0-0.2,0-0.3,0c-1.7-0.4-3.3-0.8-5-1.3c-3.9-1.2-7.7-2.3-11.7-1.5c-0.8,0.1-1.5-0.4-1.7-1.2
				c-0.1-0.8,0.4-1.5,1.2-1.7c4.7-0.8,8.9,0.4,13,1.6c1.6,0.5,3.2,0.9,4.7,1.3c0.8,0.2,1.3,0.9,1.1,1.7
				C32.2,72.6,31.6,73.1,30.9,73.1z"/>
		</g>
		<g>
			<path class="st2" d="M68.1,73.1c-0.7,0-1.3-0.5-1.4-1.1c-0.2-0.8,0.3-1.5,1.1-1.7c1.6-0.3,3.2-0.8,4.7-1.3
				c4.1-1.2,8.3-2.4,13-1.6c0.8,0.1,1.3,0.9,1.2,1.7c-0.1,0.8-0.9,1.3-1.7,1.2c-4-0.7-7.7,0.4-11.7,1.5c-1.6,0.5-3.3,1-5,1.3
				C68.3,73.1,68.2,73.1,68.1,73.1z"/>
		</g>
		<g>
			<path class="st2" d="M81,30.2c-0.3,0-0.5-0.1-0.8-0.2c-3.6-2.3-5.9-5.7-8.1-8.9c-1.8-2.6-3.4-5-5.6-6.9c-0.6-0.5-0.7-1.4-0.2-2
				c0.5-0.6,1.4-0.7,2-0.2c2.5,2.2,4.4,4.9,6.1,7.5c2.2,3.2,4.2,6.1,7.3,8.2c0.7,0.4,0.9,1.3,0.4,2C81.9,29.9,81.5,30.2,81,30.2z"/>
		</g>
		<g>
			<path class="st2" d="M18.7,30.2c-0.3,0-0.6-0.1-0.9-0.3c-0.6-0.5-0.7-1.4-0.2-2l12.9-15.7c0.5-0.6,1.4-0.7,2-0.2
				c0.6,0.5,0.7,1.4,0.2,2L19.9,29.7C19.6,30,19.2,30.2,18.7,30.2z"/>
		</g>
		<g>
			<path class="st2" d="M81,28.7c0,0-0.1,0-0.1,0c-0.8-0.1-1.4-0.7-1.3-1.5c0.3-4.1,5.2-23.5,15-23.5c0,0,0,0,0,0
				c0.8,0,1.4,0.6,1.4,1.4c0,0.8-0.6,1.4-1.4,1.4h0c0,0,0,0,0,0c-6.8,0-11.8,15.8-12.2,20.8C82.4,28.2,81.7,28.7,81,28.7z"/>
		</g>
	</g>
</g>
</svg>
