<svg xmlns="http://www.w3.org/2000/svg" viewBox="0 0 96 96"><defs><style>.a{fill:none;stroke:#000;stroke-linecap:round;stroke-linejoin:round;stroke-width:2.82px;}</style></defs><title>icones</title><path class="a" d="M13.52,46.89c-1.6,14.78-.25,29.57-.77,44.7H83.28c-.53-15.13.83-29.92-.77-44.7"/><path class="a" d="M62.8,46.18c5.81-1.55,11.74-.42,17.6-.54.69,0,2.21.88,2.76.47,5.63-4.21,2-10.25,2.78-15.43.64-4.07-2.75-4.61-5.53-4.12-10.52,1.85-21.19-.72-31.7,1.26-3.22.61-7.05-3.61-9.7.16-2.22,3.17-.75,7.41-.8,11.16-.15,10.8-.05,21.6-.05,32.48,4.31-.28,6.75-3,9.4-4.47,3.7,1.15,5.92,4.35,10.31,4.45v-43"/><path class="a" d="M41.68,25.77c.57-1.65,1.6-3.44,0-4.9C36.21,16,32,9.84,25.54,6c-4.48-2.69-8.13-1.34-11.23,1.58s-5.72,6-3.2,11.31c1.15,2.41,3.07,4.34,3.81,6.91"/><path class="a" d="M81.1,25.77c6.78-9.61,5.84-16.7-2.83-20.38-2.8-1.19-5.83-1.66-8.42.67-5.19,4.66-10.45,9.26-15.43,14.15-1.43,1.4-1,3.68-.07,5.56"/><path class="a" d="M48,28.58V61.67"/><path class="a" d="M38.16,27.88c-7.75-.47-15.49-1-23.24-1.39-3.86-.19-5.5,1.69-4.95,5.62.58,4.19-1.63,9,.92,12.53,3,4.07,7.77-.24,11.8.73,3.39.81,7.1-.58,10.54.81"/><path class="a" d="M54.35,19.43c-5.31-7-7.36-7-12.67,0"/></svg>