<?xml version="1.0" encoding="utf-8"?>
<!-- Generator: Adobe Illustrator 22.1.0, SVG Export Plug-In . SVG Version: 6.00 Build 0)  -->
<svg version="1.1" id="Layer_1" xmlns="http://www.w3.org/2000/svg" xmlns:xlink="http://www.w3.org/1999/xlink" x="0px" y="0px"
	 viewBox="0 0 96 96" style="enable-background:new 0 0 96 96;" xml:space="preserve">
<style type="text/css">
	.st0{fill:none;stroke:#000000;stroke-width:2;stroke-linecap:round;stroke-linejoin:round;stroke-miterlimit:10;}
	.st1{fill:none;stroke:#000000;stroke-width:2.8224;stroke-linecap:round;stroke-linejoin:round;stroke-miterlimit:10;}
	.st2{fill:#823499;}
	.st3{fill:none;stroke:#000000;stroke-width:2.8992;stroke-linecap:round;stroke-linejoin:round;stroke-miterlimit:10;}
	.st4{fill:none;stroke:#000000;stroke-width:2.7436;stroke-linecap:round;stroke-linejoin:round;stroke-miterlimit:10;}
</style>
<g>
	<g>
		<path d="M83.3,93H12.7c-0.4,0-0.7-0.2-1-0.4c-0.3-0.3-0.4-0.6-0.4-1c0.2-5.9,0.1-11.8,0-17.5c-0.1-9-0.3-18.2,0.7-27.3
			c0.1-0.8,0.8-1.3,1.6-1.2c0.8,0.1,1.3,0.8,1.2,1.6c-1,8.9-0.8,17.7-0.7,27c0.1,5.3,0.1,10.7,0,16.2h67.6c-0.1-5.5-0.1-10.9,0-16.2
			c0.1-9.3,0.2-18-0.7-27c-0.1-0.8,0.5-1.5,1.2-1.6c0.8-0.1,1.5,0.5,1.6,1.2c1,9.1,0.9,18.4,0.7,27.3c-0.1,5.7-0.2,11.6,0,17.5
			c0,0.4-0.1,0.8-0.4,1C84,92.8,83.7,93,83.3,93z"/>
	</g>
	<g>
		<path d="M38.2,73c-0.4,0-0.7-0.1-1-0.4c-0.3-0.3-0.4-0.6-0.4-1c0-3.1,0-6.1,0-9.2c0-7.6,0-15.5,0.1-23.3c0-1-0.1-2.1-0.2-3.2
			c-0.3-2.8-0.6-6.1,1.3-8.7c2.3-3.2,5.3-2.1,7.5-1.4c1.2,0.4,2.2,0.8,3.1,0.6c5.5-1,11-0.9,16.4-0.7c5.1,0.2,10.3,0.3,15.3-0.6
			c1.5-0.3,4.3-0.5,6,1.2c0.7,0.7,1.6,2.1,1.2,4.5c-0.2,1.5,0,3.1,0.2,4.9c0.5,3.8,1,8.2-3.5,11.5c-0.9,0.7-2.1,0.3-3,0
			c-0.2-0.1-0.5-0.2-0.7-0.2c-1.9,0-3.8,0-5.7-0.1c-4-0.2-7.8-0.4-11.6,0.6c-0.8,0.2-1.5-0.2-1.7-1c-0.2-0.8,0.2-1.5,1-1.7
			c4.2-1.1,8.4-0.9,12.4-0.7c1.8,0.1,3.7,0.2,5.5,0.1c0.5,0,1,0.2,1.6,0.3c0.2,0.1,0.5,0.2,0.7,0.2c2.9-2.3,2.5-5.3,2.1-8.7
			c-0.2-1.8-0.4-3.7-0.1-5.6c0.2-1,0-1.6-0.4-2c-0.6-0.6-1.9-0.8-3.5-0.5c-5.3,0.9-10.7,0.8-15.9,0.6c-1.8-0.1-3.6-0.1-5.5-0.1
			c0,0,0,0.1,0,0.1v43c0,0.4-0.2,0.7-0.4,1c-0.3,0.3-0.6,0.4-1,0.4c-3-0.1-5.2-1.4-7.1-2.6c-1-0.6-2-1.3-3.1-1.7
			c-0.5,0.3-1,0.7-1.5,1C44.1,71.2,41.8,72.8,38.2,73C38.2,73,38.2,73,38.2,73z M47.6,65.7c0.1,0,0.3,0,0.4,0.1
			c1.7,0.5,3,1.4,4.3,2.2c1.4,0.9,2.7,1.7,4.2,2V28.6c0,0,0-0.1,0-0.1c-2.5,0.1-5,0.3-7.5,0.7c-1.6,0.3-3.2-0.3-4.5-0.7
			c-2.4-0.8-3.3-1-4.3,0.3c-1.3,1.8-1,4.3-0.8,6.8c0.1,1.2,0.2,2.4,0.2,3.5c-0.1,7.7-0.1,15.6-0.1,23.3c0,2.5,0,5,0,7.6
			c2-0.5,3.5-1.5,5-2.6c0.8-0.5,1.5-1.1,2.3-1.5C47.1,65.8,47.3,65.7,47.6,65.7z"/>
	</g>
	<g>
		<path d="M41.7,27.2c-0.2,0-0.3,0-0.5-0.1c-0.7-0.3-1.1-1.1-0.9-1.8c0.1-0.2,0.2-0.5,0.3-0.7c0.6-1.6,0.7-2.1,0.1-2.7
			c-2-1.8-3.8-3.7-5.6-5.6c-3.3-3.5-6.3-6.7-10.3-9.1c-3.4-2-6.3-1.6-9.5,1.4c-2.9,2.8-5,5.2-2.9,9.7c0.4,0.9,1,1.7,1.5,2.6
			c0.9,1.4,1.8,2.8,2.3,4.5c0.2,0.7-0.2,1.5-1,1.7c-0.8,0.2-1.5-0.2-1.7-1c-0.4-1.3-1.2-2.5-2-3.8c-0.6-0.9-1.2-1.9-1.7-2.9
			c-2.9-6.1,0.3-9.9,3.5-12.9c4.1-3.9,8.4-4.5,12.9-1.8c4.3,2.6,7.7,6.2,10.9,9.6c1.7,1.8,3.5,3.7,5.4,5.4c2.1,1.9,1.2,4.2,0.6,5.8
			c-0.1,0.2-0.2,0.4-0.2,0.6C42.8,26.8,42.3,27.2,41.7,27.2z"/>
	</g>
	<g>
		<path d="M54.4,27.2c-0.5,0-1-0.3-1.3-0.8c-1.5-2.9-1.4-5.6,0.3-7.2c4.1-4,8.5-7.9,12.7-11.7L68.9,5c2.6-2.3,5.9-2.6,9.9-0.9
			c4.2,1.8,6.8,4.4,7.8,7.7c1.2,4.1-0.3,9.1-4.3,14.8c-0.4,0.6-1.3,0.8-2,0.3c-0.6-0.4-0.8-1.3-0.3-2c3.5-5,4.8-9.2,3.9-12.4
			c-0.7-2.5-2.8-4.4-6.2-5.9c-3-1.3-5.2-1.2-6.9,0.4L68,9.6c-4.2,3.7-8.5,7.6-12.6,11.6c-0.9,0.9-0.5,2.6,0.2,3.9
			c0.4,0.7,0.1,1.5-0.6,1.9C54.8,27.1,54.6,27.2,54.4,27.2z"/>
	</g>
	<g>
		<path d="M48,63.1c-0.8,0-1.4-0.6-1.4-1.4V28.6c0-0.8,0.6-1.4,1.4-1.4s1.4,0.6,1.4,1.4v33.1C49.4,62.4,48.8,63.1,48,63.1z"/>
	</g>
	<g>
		<path d="M14.4,47.8c-1.6,0-3.3-0.5-4.6-2.4c-1.9-2.6-1.6-5.7-1.3-8.7c0.2-1.6,0.3-3.1,0.1-4.5c-0.3-2.4,0.1-4.3,1.2-5.5
			c1.1-1.2,2.9-1.8,5.2-1.7c5.5,0.3,11.1,0.6,16.5,1c2.2,0.1,4.5,0.3,6.7,0.4c0.8,0,1.4,0.7,1.3,1.5c0,0.8-0.7,1.4-1.5,1.3
			c-2.2-0.1-4.5-0.3-6.7-0.4c-5.4-0.3-11-0.7-16.5-1c-1.4-0.1-2.4,0.2-3,0.8c-0.7,0.8-0.7,2.2-0.5,3.3c0.2,1.7,0.1,3.5-0.1,5.2
			c-0.3,2.6-0.5,5,0.8,6.7c1.2,1.6,2.7,1.4,5.4,0.7c1.7-0.4,3.7-0.9,5.6-0.5c1.3,0.3,2.7,0.2,4.2,0.2c2.1-0.1,4.3-0.2,6.5,0.7
			c0.7,0.3,1.1,1.1,0.8,1.8c-0.3,0.7-1.1,1.1-1.8,0.8c-1.6-0.7-3.4-0.6-5.3-0.5c-1.6,0.1-3.3,0.2-5-0.3c-1.2-0.3-2.7,0.1-4.2,0.5
			C16.9,47.5,15.7,47.8,14.4,47.8z"/>
	</g>
	<g>
		<path d="M54.4,20.8c-0.4,0-0.8-0.2-1.1-0.6c-2.5-3.3-4.1-4.7-5.2-4.7s-2.7,1.4-5.2,4.7c-0.5,0.6-1.4,0.7-2,0.3
			c-0.6-0.5-0.7-1.4-0.3-2c2.7-3.6,4.9-5.8,7.5-5.8s4.7,2.2,7.5,5.8c0.5,0.6,0.3,1.5-0.3,2C54.9,20.7,54.6,20.8,54.4,20.8z"/>
	</g>
</g>
</svg>
