<?xml version="1.0" encoding="utf-8"?>
<!-- Generator: Adobe Illustrator 22.1.0, SVG Export Plug-In . SVG Version: 6.00 Build 0)  -->
<svg version="1.1" id="Layer_1" xmlns="http://www.w3.org/2000/svg" xmlns:xlink="http://www.w3.org/1999/xlink" x="0px" y="0px"
	 viewBox="0 0 96 96" style="enable-background:new 0 0 96 96;" xml:space="preserve">
<style type="text/css">
	.st0{fill:none;stroke:#000000;stroke-width:2;stroke-linecap:round;stroke-linejoin:round;stroke-miterlimit:10;}
	.st1{fill:none;stroke:#000000;stroke-width:2.8224;stroke-linecap:round;stroke-linejoin:round;stroke-miterlimit:10;}
	.st2{fill:#823499;}
	.st3{fill:none;stroke:#000000;stroke-width:2.8992;stroke-linecap:round;stroke-linejoin:round;stroke-miterlimit:10;}
	.st4{fill:none;stroke:#000000;stroke-width:2.7436;stroke-linecap:round;stroke-linejoin:round;stroke-miterlimit:10;}
</style>
<path class="st1" d="M38.8,64.4c-5.2-4.2-10.1-8.8-15.6-12.6C19.9,49.5,10.1,39,6.5,38.1c-2.6,1.7-2.3,4.1-2.3,6.5
	c0,13.2,0.2,26.3-0.1,39.5c-0.2,6,3.1,7.7,7.9,7.7c24,0.1,48,0.1,72,0c4.8,0,8-1.7,7.9-7.7c-0.3-13.2-0.1-26.3-0.1-39.5
	c0-2.3-0.2-4.4-1.5-6.4c-5.7-0.2-17.5,13-20.4,15.5c-7,6-14.3,11.6-21.2,17.1c-4.4-0.5-5.2-5.4-9.1-5.7"/>
<path class="st1" d="M82.5,41.8c-0.7-1.1-4.5-6.6-4.8-7.7c-0.8-3.7,0.2-7.6,0-11.4c-0.3-5.9-0.1-11.8-0.1-18c-20,0-39.3,0-59.3,0
	c0,8.8,0,17.3,0,25.8c0,1.3,0.2,2.6,0.1,3.8c-0.1,1.1-3.9,6.5-4.9,7.5"/>
<path class="st1" d="M45.9,53.8C39.1,48,32.5,42.3,31,32.6c-1.4-8.5,4.1-18,12.1-19.8c9.8-2.1,19.5,3.2,21.9,12
	C67.4,34,61.1,46.7,50,53.6c-2.6,1.7-4.4,2.6-2.7,5.8"/>
<path class="st1" d="M57.9,65.1c9.9,8,19.8,16,29.6,24"/>
<path class="st1" d="M48.7,17.8c-9.6,1.9-10.8,3.1-12.7,12.7"/>
<path class="st1" d="M38.1,65.1c-4.7,3.8-9.4,7.5-14.1,11.3"/>
<path class="st1" d="M25.5,74.8c-4.6,2.3-13.4,10.6-17,14.2"/>
</svg>
