<svg version="1.1" viewBox="0 0 96 96">
<path id="icon" d="M34,66.5c-0.4,0-0.7-0.1-1-0.4c-1.7-1.8-3.2-3.7-2.4-5.3c0.6-1.2,2-1.4,3.5-1.4c0,0,0,0,0,0c0.2-2.4,0.1-4.9,0.1-7.2
	c-0.1-5.9-0.3-12.1,2.7-18.2c2.6-5.2,8.2-11.2,20.7-9.9c5.6,0.5,13,7.2,14.6,13.1c1.6,5.8,0.4,12-3.2,16.9c-3.7,5-9.5,8-15.8,8.2
	c-2.8,0.1-5.7,0.1-8.5,0c-2.6,0-5.2,0-7.8,0c-0.5,0-1.1,0-1.7-0.1c-0.5,0-1.2-0.1-1.8-0.1c0.2,0.4,0.7,1,1.6,1.9
	c0.5,0.6,0.5,1.5,0,2C34.7,66.4,34.3,66.5,34,66.5z M54.3,26.7c-7.2,0-12.2,2.9-15,8.5c-2.7,5.5-2.6,11-2.4,16.9
	c0.1,2.4,0.1,4.9-0.1,7.4c2.6-0.1,5.3,0,7.9,0c2.7,0,5.6,0,8.4,0c5.4-0.2,10.4-2.8,13.6-7.1c3.1-4.2,4.1-9.5,2.7-14.4
	c-1.3-4.8-7.7-10.6-12.1-11.1C56.2,26.7,55.2,26.7,54.3,26.7z"/><path d="M38.9,92.8c-0.4,0-0.7-0.1-1-0.4L3.4,57.8C3.1,57.5,3,57.1,3,56.7s0.2-0.8,0.5-1c0.7-0.6,3.3-3,5.8-5.3
	c3-2.8,6.1-5.7,7.2-6.6c0.6-0.5,1.5-0.4,2,0.2s0.4,1.5-0.2,2c-1,0.8-4.2,3.8-7,6.5c-1.9,1.8-3.6,3.4-4.7,4.4l32.5,32.5
	c3.1-3.1,6.2-6.2,9.3-9.3c8.5-8.4,17.2-17.2,25.8-25.9c0.6-0.6,1.3-1.3,1.9-1.9c5.2-5.1,9.7-9.6,9.7-18.3c0-0.8,0-1.5,0-2.3
	c0-5.8,0.1-10-4.4-13.7c-0.6-0.5-0.7-1.4-0.2-2c0.5-0.6,1.4-0.7,2-0.2c5.5,4.5,5.5,9.8,5.5,15.9c0,0.7,0,1.5,0,2.2
	c0,10-5.3,15.3-10.5,20.4c-0.6,0.6-1.3,1.2-1.9,1.9C67.4,64.9,58.7,73.6,50.2,82c-3.5,3.5-6.9,6.9-10.3,10.3
	C39.7,92.6,39.3,92.8,38.9,92.8z"/><path d="M14.8,48.8c-0.4,0-0.7-0.1-1-0.4c-0.6-0.6-0.6-1.5,0-2c2.6-2.6,5.2-5.2,7.8-7.8c6-6,12.3-12.3,18.4-18.4
	c0.7-0.6,1.3-1.3,1.9-1.9c5.1-5.2,10.3-10.5,20.2-10.5c0.2,0,0.4,0,0.6,0c0.6,0,1.2,0,1.7,0c6,0,11.3-0.1,15.8,5.3
	c0,0,3.1,3.1,3.1,3.1c0.5,0.6,0.4,1.5-0.2,2c-0.6,0.5-1.5,0.4-2-0.2c-0.1-0.1-3.1-3.2-3.2-3.2c-3.6-4.3-7.8-4.2-13.4-4.2
	c-0.7,0-1.5,0-2.3,0c0,0-0.1,0-0.1,0c-8.7,0-13.1,4.5-18.2,9.7c-0.6,0.7-1.3,1.3-2,2c-6.2,6.1-12.4,12.3-18.4,18.4
	c-2.6,2.6-5.2,5.2-7.8,7.8C15.6,48.7,15.2,48.8,14.8,48.8z"/><path d="M36.1,80c-0.5,0-0.9-0.2-1.2-0.6c-4.8-7.1-10.9-13.2-18-18c-0.6-0.4-0.8-1.3-0.4-2c0.4-0.6,1.3-0.8,2-0.4
	c7.4,5,13.8,11.4,18.8,18.8c0.4,0.6,0.3,1.5-0.4,2C36.7,79.9,36.4,80,36.1,80z"/><path d="M62.3,35.3c-0.3,0-0.6-0.1-0.8-0.3c-5.3-3.8-10.3-3.8-15.3,0c-0.6,0.5-1.5,0.4-2-0.3c-0.5-0.6-0.4-1.5,0.3-2
	c6-4.6,12.3-4.6,18.7,0c0.6,0.5,0.8,1.3,0.3,2C63.2,35.1,62.8,35.3,62.3,35.3z"/><path d="M81.7,16c-0.4,0-0.7-0.1-1-0.4c-0.6-0.6-0.6-1.5,0-2l9.9-9.9c0.6-0.6,1.5-0.6,2,0c0.6,0.6,0.6,1.5,0,2l-9.9,9.9
	C82.4,15.9,82,16,81.7,16z"/><path d="M74.4,27.6c-0.1,0-0.2,0-0.3,0c-0.8-0.2-1.3-0.9-1.1-1.7c0.2-1.2,0.2-2.1-0.1-2.4c-0.3-0.3-1.2-0.4-2.4-0.1
	c-0.8,0.2-1.5-0.3-1.7-1.1c-0.2-0.8,0.3-1.5,1.1-1.7c2.3-0.5,3.9-0.1,5,0.9c1.1,1.1,1.4,2.7,0.9,5C75.6,27.1,75,27.6,74.4,27.6z"
	/>
</svg>
